<?xml version="1.0" encoding="utf-8"?>
<!-- Generator: Adobe Illustrator 27.6.0, SVG Export Plug-In . SVG Version: 6.00 Build 0)  -->
<svg version="1.1" xmlns="http://www.w3.org/2000/svg" xmlns:xlink="http://www.w3.org/1999/xlink" x="0px" y="0px"
	 viewBox="0 0 988.6 220.4" style="enable-background:new 0 0 988.6 220.4;" xml:space="preserve">
<style type="text/css">
	.st0{fill:none;}
	.st1{fill:#FFFFFF;}
	.st2{fill:#003399;}
	.st3{font-family:'Arial-BoldMT';}
	.st4{font-size:65px;}
	.st5{display:none;}
	.st6{display:inline;fill:#CCFFD9;}
</style>
<g id="Layer_1">
	<rect x="10" y="10" class="st0" width="294.9" height="200.3"/>
	<path class="st1" d="M157.5,112.1"/>
	<path class="st2" d="M157.5,110.1"/>
	<path class="st2" d="M15.7,15.5v189.1h283.6V15.5H15.7z M85.7,107.3l7.5,0l2.3-7.2l2.3,7.2h7.5l-6.1,4.4l2.3,7.1l-6-4.4l-6,4.4
		l2.3-7.1L85.7,107.3z M109.8,149.7l-6-4.4l-6,4.4l2.3-7.1l-6.1-4.4l7.5,0l2.3-7.2l2.3,7.2h7.5l-6.1,4.4L109.8,149.7z M107.5,80.7
		l2.3,7.1l-6-4.4l-6,4.4l2.3-7.1L94,76.3l7.5,0l2.3-7.2l2.3,7.2h7.5L107.5,80.7z M124.2,53.6l2.3-7.2l2.3,7.2h7.5l-6.1,4.4l2.3,7.1
		l-6-4.4l-6,4.4l2.3-7.1l-6.1-4.4L124.2,53.6z M132.5,172.4l-6-4.4l-6,4.4l2.3-7.1l-6.1-4.4l7.5,0l2.3-7.2l2.3,7.1h7.5l-6.1,4.4
		L132.5,172.4z M155.2,45.3l2.3-7.2l2.3,7.1h7.5l-6.1,4.4l2.3,7.1l-6-4.4l-6,4.4l2.3-7.1l-6.1-4.4L155.2,45.3z M163.4,180.6l-6-4.4
		l-6,4.4l2.3-7.1l-6.1-4.4l7.5,0l2.3-7.2l2.3,7.2h7.5l-6.1,4.4L163.4,180.6z M194.4,172.4l-6-4.4l-6,4.4l2.3-7.1l-6.1-4.4l7.5,0
		l2.3-7.2l2.3,7.1h7.5l-6.1,4.4L194.4,172.4z M192.2,58l2.3,7.1l-6-4.4l-6,4.4l2.3-7.1l-6.1-4.4l7.5,0l2.3-7.2l2.3,7.1h7.5L192.2,58
		z M208.8,76.3l2.3-7.2l2.3,7.2h7.5l-6.1,4.4l2.3,7.1l-6-4.4l-6,4.4l2.3-7.1l-6.1-4.4L208.8,76.3z M217.1,149.7l-6-4.4l-6,4.4
		l2.3-7.1l-6.1-4.4l7.5,0l2.3-7.2l2.3,7.2h7.5l-6.1,4.4L217.1,149.7z M225.3,118.6l-6-4.4l-6,4.4l2.3-7.1l-6.1-4.4l7.5,0l2.3-7.2
		l2.3,7.2h7.5l-6.1,4.4L225.3,118.6z"/>
	<text transform="matrix(1 0 0 1 335.5373 86.7068)"><tspan x="0" y="0" class="st2 st3 st4">Co-funded by</tspan><tspan x="0" y="78" class="st2 st3 st4">the European Union</tspan></text>
</g>
<g id="Layer_2" class="st5">
	<rect x="299.3" y="97.2" class="st6" width="41" height="24.6"/>
	<rect x="947.9" y="97.2" class="st6" width="41" height="24.6"/>
	<rect x="0.1" y="104.7" class="st6" width="10" height="10"/>
	<rect x="355.5" y="0" class="st6" width="10" height="10"/>
	<rect x="10" y="210.4" class="st6" width="10" height="10"/>
</g>
</svg>
